<svg height="512pt" viewBox="0 -70 512 512" width="512pt" xmlns="http://www.w3.org/2000/svg"><g fill-rule="evenodd"><path d="m40.894531 10h430.210938c16.992187 0 30.894531 13.902344 30.894531 30.894531v289.640625c0 16.992188-13.902344 30.894532-30.894531 30.894532h-430.210938c-16.992187 0-30.894531-13.90625-30.894531-30.898438v-289.636719c0-16.992187 13.902344-30.894531 30.894531-30.894531zm0 0" fill="#88c9f7"/><path d="m256 61.589844h190.875v248.25h-190.875zm0 0" fill="#fed049"/><path d="m65.125 61.589844h190.875v248.25h-190.875zm0 0" fill="#d0d7df"/><path d="m197.953125 185.714844-74.78125-43.179688v86.355469l37.390625-21.589844zm0 0" fill="#fa5c66"/><path d="m471.105469 0h-430.210938c-22.550781 0-40.894531 18.34375-40.894531 40.894531v289.640625c0 22.546875 18.34375 40.894532 40.894531 40.894532h175.105469c5.523438 0 10-4.476563 10-10 0-5.523438-4.476562-10-10-10h-175.105469c-11.523437 0-20.894531-9.375-20.894531-20.894532v-289.640625c0-11.523437 9.371094-20.894531 20.894531-20.894531h430.210938c11.523437 0 20.894531 9.371094 20.894531 20.894531v289.640625c0 11.519532-9.371094 20.894532-20.894531 20.894532h-175.105469c-5.523438 0-10 4.476562-10 10 0 5.523437 4.476562 10 10 10h175.105469c22.546875 0 40.894531-18.34375 40.894531-40.894532v-289.640625c0-22.550781-18.347656-40.894531-40.894531-40.894531zm0 0"/><path d="m446.875 319.839844c5.523438 0 10-4.476563 10-10v-248.25c0-5.523438-4.476562-10-10-10h-381.75c-5.523438 0-10 4.476562-10 10v248.25c0 5.523437 4.476562 10 10 10zm-10-20h-170.875v-228.25h170.875zm-361.75-228.25h170.875v228.25h-170.875zm0 0"/><path d="m304.242188 176.214844h94.390624c5.519532 0 10-4.480469 10-10 0-5.523438-4.480468-10-10-10h-94.390624c-5.523438 0-10 4.476562-10 10 0 5.519531 4.476562 10 10 10zm0 0"/><path d="m304.242188 137.210938h94.390624c5.519532 0 10-4.476563 10-10 0-5.523438-4.480468-10-10-10h-94.390624c-5.523438 0-10 4.476562-10 10 0 5.523437 4.476562 10 10 10zm0 0"/><path d="m304.242188 215.214844h94.390624c5.519532 0 10-4.476563 10-10 0-5.523438-4.480468-10-10-10h-94.390624c-5.523438 0-10 4.476562-10 10 0 5.523437 4.476562 10 10 10zm0 0"/><path d="m304.242188 254.21875h94.390624c5.519532 0 10-4.476562 10-10s-4.480468-10-10-10h-94.390624c-5.523438 0-10 4.476562-10 10s4.476562 10 10 10zm0 0"/><path d="m202.953125 177.054688-74.78125-43.175782c-3.097656-1.789062-6.90625-1.789062-10 0-3.097656 1.785156-5 5.085938-5 8.65625v86.355469c0 3.574219 1.902344 6.875 5 8.660156 1.546875.894531 3.269531 1.339844 5 1.339844 1.726563 0 3.449219-.445313 5-1.339844l74.78125-43.175781c3.09375-1.785156 5-5.089844 5-8.660156 0-3.574219-1.90625-6.875-5-8.660156zm-69.78125 34.515624v-51.714843l44.78125 25.859375zm0 0"/><path d="m256 351.429688c-5.507812 0-10 4.492187-10 10 0 5.507812 4.492188 10 10 10s10-4.492188 10-10c0-5.507813-4.492188-10-10-10zm0 0"/></g></svg>